static_grf.mot
version=1
nRows=17
nColumns 19
inDegrees=yes
endheader
time	1_ground_force_vx	1_ground_force_vy	1_ground_force_vz	1_ground_force_px	1_ground_force_py	1_ground_force_pz	1_ground_torque_x	1_ground_torque_y	1_ground_torque_z	2_ground_force_vx	2_ground_force_vy	2_ground_force_vz	2_ground_force_px	2_ground_force_py	2_ground_force_pz	2_ground_torque_x	2_ground_torque_y	2_ground_torque_z
            0.005000	            3.368980	          385.925525	          -34.810075	           -0.322027	            0.006180	           -0.399077	            0.009171	            1.050540	           -0.094758	           -4.122456	          385.682219	           80.639945	           -0.300342	            0.005522	           -0.732082	            0.130454	          -12.204828	           -2.551833
            0.005500	            3.505826	          385.926731	          -35.085552	           -0.322238	            0.006180	           -0.399007	            0.010097	            1.111545	           -0.101053	           -4.171321	          386.234640	           80.595000	           -0.300293	            0.005523	           -0.732174	            0.132095	          -12.231032	           -2.552231
            0.006000	            3.460682	          386.466174	          -34.762124	           -0.322124	            0.006178	           -0.398625	            0.009838	            1.098628	           -0.098820	           -4.170533	          386.049495	           80.875912	           -0.300312	            0.005522	           -0.731978	            0.132860	          -12.298335	           -2.576455
            0.006500	            3.643616	          385.746129	          -34.994955	           -0.322453	            0.006180	           -0.399062	            0.010773	            1.140559	           -0.103472	           -4.169348	          385.682385	           80.546109	           -0.300556	            0.005521	           -0.731979	            0.132712	          -12.276438	           -2.563818
            0.007000	            3.506509	          385.925552	          -34.810417	           -0.322090	            0.006179	           -0.398879	            0.010244	            1.127458	           -0.101697	           -4.215409	          385.497071	           80.827040	           -0.300461	            0.005521	           -0.731975	            0.134318	          -12.283284	           -2.575432
            0.007500	            3.551472	          387.008334	          -35.081028	           -0.321981	            0.006178	           -0.398701	            0.010334	            1.126096	           -0.102077	           -4.310480	          385.865349	           80.734538	           -0.300294	            0.005522	           -0.731871	            0.136571	          -12.225516	           -2.557943
            0.008000	            3.414692	          386.646597	          -34.807097	           -0.322058	            0.006179	           -0.398808	            0.009011	            1.020372	           -0.091857	           -4.358741	          386.234131	           80.548159	           -0.300476	            0.005522	           -0.732158	            0.138369	          -12.261038	           -2.557009
            0.008500	            3.506201	          385.745906	          -34.948754	           -0.322230	            0.006179	           -0.398961	            0.010156	            1.117362	           -0.101234	           -4.314570	          386.971091	           80.503832	           -0.300208	            0.005523	           -0.732114	            0.135854	          -12.184634	           -2.534840
            0.009000	            3.139523	          385.385304	          -34.949389	           -0.322311	            0.006181	           -0.399246	            0.008929	            1.096087	           -0.099401	           -4.077539	          386.234309	           80.782673	           -0.300435	            0.005522	           -0.732035	            0.129874	          -12.301949	           -2.573009
            0.009500	            3.414269	          386.467148	          -34.991294	           -0.322230	            0.006179	           -0.398942	            0.009545	            1.080389	           -0.097820	           -4.358056	          386.049822	           80.594423	           -0.300620	            0.005521	           -0.731963	            0.138998	          -12.312853	           -2.570516
            0.010000	            3.414646	          385.024826	          -34.951618	           -0.322167	            0.006182	           -0.399525	            0.009789	            1.103787	           -0.100199	           -4.216115	          385.681546	           80.733841	           -0.300443	            0.005521	           -0.731975	            0.134191	          -12.275516	           -2.569606
            0.010500	            3.323039	          386.466344	          -34.807643	           -0.322136	            0.006178	           -0.398679	            0.009555	            1.111274	           -0.100089	           -4.402788	          385.496227	           80.874040	           -0.300382	            0.005520	           -0.731571	            0.139806	          -12.241021	           -2.568069
            0.011000	            3.322518	          386.827661	          -34.989520	           -0.322096	            0.006178	           -0.398565	            0.009669	            1.125739	           -0.101826	           -4.311165	          386.049657	           80.688259	           -0.300594	            0.005521	           -0.732016	            0.136867	          -12.255974	           -2.561622
            0.011500	            3.276920	          386.106393	          -34.946639	           -0.322078	            0.006179	           -0.398829	            0.009387	            1.106031	           -0.100107	           -4.311165	          386.049657	           80.688259	           -0.300168	            0.005523	           -0.732017	            0.136595	          -12.231646	           -2.556537
            0.012000	            3.185462	          386.105982	          -34.854699	           -0.322047	            0.006178	           -0.398723	            0.008861	            1.073987	           -0.096951	           -4.403412	          385.680033	           80.968554	           -0.300530	            0.005521	           -0.731960	            0.139980	          -12.260350	           -2.573903
            0.012500	            3.367971	          386.467925	          -35.174604	           -0.322084	            0.006178	           -0.398623	            0.009524	            1.092846	           -0.099466	           -4.169827	          385.865019	           80.969111	           -0.300344	            0.005522	           -0.732125	            0.132696	          -12.279299	           -2.576663
            0.013000	            3.460016	          385.746487	          -35.086211	           -0.321934	            0.006180	           -0.399172	            0.010314	            1.149831	           -0.104585	           -4.027304	          385.313272	           80.920160	           -0.300445	            0.005521	           -0.731941	            0.129130	          -12.354549	           -2.594596
